<?xml version="1.0" encoding="utf-8"?>
<!-- Svg Vector Icons : http://www.onlinewebfonts.com/icon -->
<!DOCTYPE svg PUBLIC "-//W3C//DTD SVG 1.1//EN" "http://www.w3.org/Graphics/SVG/1.1/DTD/svg11.dtd">
<svg version="1.1" xmlns="http://www.w3.org/2000/svg" xmlns:xlink="http://www.w3.org/1999/xlink" x="0px" y="0px" viewBox="0 0 256 256" enable-background="new 0 0 256 256" xml:space="preserve">
<metadata> Svg Vector Icons : http://www.onlinewebfonts.com/icon </metadata>
<g><g><g><path fill="#000000" d="M108.3,10.4c-46.8,6-83.7,37.9-95.2,82.5c-4.9,18.7-3.9,42.7,2.4,61.6c5.8,17.1,14.8,31.3,28.3,44.2c9.6,9.3,16.9,14.2,29.3,20.2c14.2,6.7,25,9.3,42.2,9.8c28.8,1,47.8-5.3,74.1-24.5c0.9-0.7,6.6,4.3,22.7,20.4c21.2,21,21.5,21.3,25.4,21.3c5.2,0,8.5-3.1,8.5-8.2c0-3.3-1.1-4.6-21.5-25.1L202.8,191l2.9-3.7c14.4-18.2,23.4-43.8,23.4-67.1c0-52.5-36.5-97.2-88.2-108.1C134,10.6,114.3,9.6,108.3,10.4z M134.6,28.2c18.9,3.3,34.8,11.2,48.5,24.2c46.9,44.8,35.2,122.1-22.9,150.5c-15.6,7.7-21.5,8.9-41.2,8.8c-15.6,0-17.5-0.2-25.1-2.5c-15.6-4.9-28.7-12.6-40.1-24c-11.7-11.7-20-26-24.3-41.8c-3.1-11.2-3.6-30-1.1-41.7c3.7-18,11.3-32.5,24.1-45.8c12-12.6,23.8-19.9,39.8-24.8C106.7,26.6,119.9,25.6,134.6,28.2z"/><path fill="#000000" d="M91.9,44.4c-10.8,3.8-18.6,8.9-28,17.8c-13.9,13.3-22,30-24,49.5c-0.7,7.3-0.7,9.3,0.5,11.5c2.6,5.2,8.8,6.3,12.8,2.5c2-1.9,2.5-3.4,3.1-9.6c0.8-9.6,2.6-16.3,6.5-24.4c6.2-13.1,18.6-24.8,32.4-30.5c8.2-3.4,10.3-5.4,10.3-10.1C105.5,44.4,99.7,41.6,91.9,44.4z"/></g></g></g>
</svg>